<svg xmlns="http://www.w3.org/2000/svg" width="1680" height="944" viewBox="0 0 1680 944">
  <defs>
    <pattern id="dots" width="24" height="24" patternUnits="userSpaceOnUse">
      <circle cx="2" cy="2" r="1" fill="#d9e2ef" opacity="0.55"/>
    </pattern>
    <filter id="shadow" x="-10%" y="-10%" width="120%" height="120%">
      <feDropShadow dx="0" dy="2" stdDeviation="3" flood-color="#14264b" flood-opacity="0.08"/>
    </filter>
    <marker id="arrow" viewBox="0 0 10 10" refX="9" refY="5" markerWidth="7" markerHeight="7" orient="auto-start-reverse">
      <path d="M 0 0 L 10 5 L 0 10 z" fill="#163e72"/>
    </marker>
    <style>
      .title{font:700 54px 'Segoe UI','Microsoft YaHei',sans-serif;fill:#0d315f}
      .subtitle{font:600 27px 'Segoe UI','Microsoft YaHei',sans-serif;fill:#173f72}
      .section{font:700 24px 'Segoe UI','Microsoft YaHei',sans-serif}
      .section-compact{font-size:21px}
      .badge{font:700 27px 'Segoe UI',sans-serif;fill:#fff;text-anchor:middle;dominant-baseline:middle}
      .skill{font:600 17px Consolas,'SFMono-Regular',monospace;fill:#132f55;text-anchor:middle;dominant-baseline:middle}
      .skill-sm{font-size:14px}
      .skill-xs{font-size:11.5px}
      .legend{font:600 18px 'Segoe UI','Microsoft YaHei',sans-serif;fill:#173f72}
      .flow{fill:none;stroke:#163e72;stroke-width:2;marker-end:url(#arrow)}
      .handoff{fill:none;stroke:#163e72;stroke-width:2;stroke-dasharray:8 7;marker-end:url(#arrow)}
    </style>
  </defs>

  <rect width="1680" height="944" fill="#fbfcfe"/>
  <rect width="1680" height="944" fill="url(#dots)"/>

  <text x="80" y="68" class="title">Skills Manager · 工作场景全景图</text>
  <text x="82" y="112" class="subtitle">23 Skills · 6 Work Scenarios · 从输入、理解、生产到交付与治理</text>
  <g transform="translate(1330 24)">
    <rect width="324" height="96" rx="18" fill="#fff" stroke="#173f72" stroke-width="2" stroke-dasharray="8 6"/>
    <path d="M20 32 H88" class="flow"/>
    <text x="102" y="38" class="legend">实线：主要工作流</text>
    <path d="M20 67 H88" class="handoff"/>
    <text x="102" y="73" class="legend">虚线：跨场景交接</text>
  </g>

  <!-- Content Operations -->
  <g filter="url(#shadow)">
    <rect x="24" y="142" width="520" height="382" rx="16" fill="#fff" stroke="#ff5f59" stroke-width="2"/>
  </g>
  <circle cx="82" cy="174" r="20" fill="#ff5f59"/><text x="82" y="175" class="badge">1</text>
  <text x="116" y="183" class="section" fill="#f0524d">内容生产 Content Operations</text>
  <g fill="#fff" stroke="#ff5f59" stroke-width="1.7">
    <rect x="44" y="205" width="232" height="42" rx="7"/><rect x="44" y="260" width="232" height="42" rx="7"/>
    <rect x="44" y="315" width="232" height="42" rx="7"/><rect x="44" y="370" width="232" height="42" rx="7"/>
    <rect x="44" y="455" width="232" height="42" rx="7"/>
    <rect x="296" y="205" width="228" height="42" rx="7"/><rect x="296" y="260" width="228" height="42" rx="7"/>
    <rect x="296" y="370" width="228" height="42" rx="7"/><rect x="296" y="455" width="228" height="42" rx="7"/>
  </g>
  <text x="160" y="226" class="skill">video-transcriber</text>
  <text x="160" y="281" class="skill skill-xs">technical-source-to-public-article</text>
  <text x="160" y="336" class="skill skill-sm">technical-article-polisher</text>
  <text x="160" y="391" class="skill skill-xs">technical-article-visual-director</text>
  <text x="160" y="476" class="skill">wechat-format</text>
  <text x="410" y="226" class="skill">office-cli-skill</text>
  <text x="410" y="281" class="skill">official-format-pro</text>
  <text x="410" y="391" class="skill skill-xs">wechat-history-article-archive</text>
  <text x="410" y="476" class="skill">wechat-cover</text>
  <path d="M160 247 V259" class="flow"/><path d="M160 302 V314" class="flow"/><path d="M160 357 V369" class="flow"/>
  <path d="M160 412 V454" class="flow"/><path d="M410 247 V259" class="flow"/>
  <path d="M410 412 C410 438 285 430 275 455" class="handoff"/><path d="M296 476 H277" class="handoff"/>

  <!-- Knowledge Visualization -->
  <g filter="url(#shadow)"><rect x="568" y="142" width="568" height="382" rx="16" fill="#fff" stroke="#18a6b8" stroke-width="2"/></g>
  <circle cx="626" cy="174" r="20" fill="#18a6b8"/><text x="626" y="175" class="badge">2</text>
  <text x="660" y="183" class="section section-compact" fill="#1497aa">知识构建与可视化 Knowledge Visualization</text>
  <g fill="#fff" stroke="#18a6b8" stroke-width="1.7">
    <rect x="684" y="205" width="336" height="44" rx="7"/><rect x="684" y="280" width="336" height="48" rx="7"/>
    <rect x="590" y="380" width="160" height="46" rx="7"/><rect x="772" y="380" width="160" height="46" rx="7"/>
    <rect x="954" y="380" width="160" height="46" rx="7"/><rect x="954" y="458" width="160" height="46" rx="7"/>
  </g>
  <text x="852" y="227" class="skill">obsidian-memory</text><text x="852" y="304" class="skill">technical-cognition-framework</text>
  <text x="670" y="403" class="skill">drawio-skill</text><text x="852" y="403" class="skill">excalidraw</text>
  <text x="1034" y="403" class="skill">mindmap-builder</text><text x="1034" y="481" class="skill">mindmap-publisher</text>
  <path d="M852 249 V279" class="flow"/><path d="M780 328 L700 379" class="flow"/><path d="M852 328 V379" class="flow"/>
  <path d="M924 328 L1005 379" class="flow"/><path d="M1034 426 V457" class="flow"/>

  <!-- AI Application Delivery -->
  <g filter="url(#shadow)"><rect x="1160" y="142" width="496" height="382" rx="16" fill="#fff" stroke="#efa100" stroke-width="2"/></g>
  <circle cx="1218" cy="174" r="20" fill="#efa100"/><text x="1218" y="175" class="badge">3</text>
  <text x="1252" y="183" class="section" fill="#df9300">AI 应用交付 AI Application Delivery</text>
  <g fill="#fff" stroke="#efa100" stroke-width="1.7">
    <rect x="1236" y="278" width="344" height="56" rx="8"/><rect x="1236" y="398" width="344" height="56" rx="8"/>
  </g>
  <text x="1408" y="306" class="skill">dify-dsl-app-builder</text><text x="1408" y="426" class="skill">dify-console-admin-api</text>
  <path d="M1408 334 V397" class="flow"/>

  <!-- Engineering Operations -->
  <g filter="url(#shadow)"><rect x="24" y="548" width="520" height="250" rx="16" fill="#fff" stroke="#1473e6" stroke-width="2"/></g>
  <circle cx="82" cy="580" r="20" fill="#1473e6"/><text x="82" y="581" class="badge">4</text>
  <text x="116" y="589" class="section" fill="#1268cf">工程运维 Engineering Operations</text>
  <g fill="#fff" stroke="#1473e6" stroke-width="1.7">
    <rect x="78" y="620" width="412" height="42" rx="7"/><rect x="78" y="681" width="412" height="42" rx="7"/><rect x="78" y="742" width="412" height="42" rx="7"/>
  </g>
  <text x="284" y="641" class="skill skill-sm">python-offline-dependency-packager</text>
  <text x="284" y="702" class="skill">backend-log-contract-trace</text><text x="284" y="763" class="skill">python-db-query</text>
  <path d="M284 723 V741" class="flow"/>

  <!-- Market Intelligence -->
  <g filter="url(#shadow)"><rect x="568" y="548" width="568" height="250" rx="16" fill="#fff" stroke="#8b58c4" stroke-width="2"/></g>
  <circle cx="626" cy="580" r="20" fill="#8b58c4"/><text x="626" y="581" class="badge">5</text>
  <text x="660" y="589" class="section" fill="#7d4db3">市场洞察 Market Intelligence</text>
  <g fill="#fff" stroke="#8b58c4" stroke-width="1.7">
    <rect x="678" y="640" width="348" height="48" rx="7"/><rect x="678" y="724" width="348" height="48" rx="7"/>
  </g>
  <text x="852" y="664" class="skill">stock-analysis-system</text><text x="852" y="748" class="skill">us-sector-index-impact-report</text>
  <path d="M852 688 V723" class="flow"/>

  <!-- Skill Governance -->
  <g filter="url(#shadow)"><rect x="1160" y="548" width="496" height="250" rx="16" fill="#fff" stroke="#559b54" stroke-width="2"/></g>
  <circle cx="1218" cy="580" r="20" fill="#559b54"/><text x="1218" y="581" class="badge">6</text>
  <text x="1252" y="589" class="section" fill="#4c8c4b">技能治理 Skill Governance</text>
  <rect x="1272" y="665" width="272" height="54" rx="8" fill="#fff" stroke="#559b54" stroke-width="1.7"/>
  <text x="1408" y="692" class="skill" font-size="20">skill-linter</text>

  <!-- Cross-scenario governance -->
  <rect x="24" y="826" width="1632" height="88" rx="16" fill="#f8fcf8" stroke="#559b54" stroke-width="2" stroke-dasharray="9 7"/>
  <text x="840" y="862" text-anchor="middle" font-family="'Segoe UI','Microsoft YaHei',sans-serif" font-size="19" font-weight="600" fill="#4c8c4b">跨场景质量门禁 · Skill Linter</text>
  <text x="840" y="892" text-anchor="middle" font-family="Consolas,monospace" font-size="18" fill="#173f72">structure · metadata · references · compatibility · secrets · catalog sync</text>
  <path d="M1408 798 V825" class="handoff"/>
</svg>
